# xmcd CD database file
# Copyright (C) 1997 Ti Kan
# 
# Track frame offsets:
#     150
#     14290
#     26880
#     42235
#     56822
#     80417
#     95397
#     113635
#     129902
#     142970
#     157687
#     171472
#     187460
#     202460
#     218442
#     231867
#     249132
#     264695
# 
# Disc length: 3779 seconds
# 
# Revision: 1
# Processed by: cddbd v1.4b41PL1 Copyright (c) Steve Scherf et al.
# Submitted via: DiscPlay 4.0.4
# 
DISCID=fb0ec112
DTITLE=Tom Jones - Tom Jones in Nashville
DYEAR=1900
DGENRE=
TTITLE0=Darlin'
TTITLE1=What in the world's come over you
TTITLE2=Lady lay down
TTITLE3=Bit I do
TTITLE4=Come home Rhondda Boy
TTITLE5=Dime queen of Nevada
TTITLE6=A woman's tuch
TTITLE7=Touch Me (Then I'll be you fool once more)
TTITLE8=It'll be me
TTITLE9=I don't wnat ot be alone tonight
TTITLE10=My last goodbye
TTITLE11=I've been rained on too
TTITLE12=This time
TTITLE13=All the love is on the radio
TTITLE14=I'm an old rock'n'roller
TTITLE15=Give her all the roses
TTITLE16=Not another heart song
TTITLE17=It's four in the morning
EXTD=\nURL: http://www.kensai.com/tomjones/ "Tom Jones - The MAN!"\nURL: htt
EXTD=p://kspace.com/jones "Tom Jones"
EXTT0=
EXTT1=
EXTT2=
EXTT3=
EXTT4=
EXTT5=
EXTT6=
EXTT7=
EXTT8=
EXTT9=
EXTT10=
EXTT11=
EXTT12=
EXTT13=
EXTT14=
EXTT15=
EXTT16=
EXTT17=
PLAYORDER=
